<svg xmlns="http://www.w3.org/2000/svg" width="127.348" height="20.404" viewBox="0 0 127.348 20.404"><g transform="translate(-284.464 -455.798)"><path d="M483.137,455.8c-4.2,0-7.072,2.622-9.557,5.87l1.473,2.151c2.277-3.115,4.7-5.565,8.084-5.565a7.807,7.807,0,0,1,7.724,6.5H481.2v2.456h12.159a10.119,10.119,0,0,0,.075-1.228,10.253,10.253,0,0,0-10.3-10.183" transform="translate(-166.203)" fill="#f7296e" fill-rule="evenodd"/><path d="M316.934,473.709c-4.142,0-6.876-3.578-10.346-8.827s-6.745-9.084-11.825-9.084a10.184,10.184,0,1,0,0,20.366c4.188,0,7.061-2.612,9.544-5.852l-1.462-2.165c-2.276,3.113-4.7,5.562-8.082,5.562a7.728,7.728,0,1,1,0-15.455c4.142,0,6.729,3.4,10.338,8.818s6.753,9.092,11.833,9.092a10.314,10.314,0,0,0,9.6-6.5H323.81a7.845,7.845,0,0,1-6.876,4.044" fill="#f7296e" fill-rule="evenodd"/><path d="M713.068,502.328a5.189,5.189,0,0,1-4.136-1.694,4.435,4.435,0,0,1-1.81,1.252,6.891,6.891,0,0,1-2.536.442,4.245,4.245,0,0,1-2.9-.926,3.241,3.241,0,0,1-1.053-2.568,2.981,2.981,0,0,1,1.252-2.568,6.3,6.3,0,0,1,3.7-.905h2.01v-.747a2.129,2.129,0,0,0-.5-1.5,1.844,1.844,0,0,0-1.426-.542,2.482,2.482,0,0,0-1.563.468,1.42,1.42,0,0,0-.605,1.163l-2.547-.2a2.982,2.982,0,0,1,1.331-2.51,5.621,5.621,0,0,1,3.4-.973,4.319,4.319,0,0,1,3.516,1.4,4.581,4.581,0,0,1,3.483-1.4,4.5,4.5,0,0,1,3.484,1.363,5.464,5.464,0,0,1,1.252,3.836v1.442H710.11a3.518,3.518,0,0,0,.895,2.294,2.922,2.922,0,0,0,2.21.831,5.3,5.3,0,0,0,2.568-.61l.642-.358.768,1.747a5.467,5.467,0,0,1-1.836.926,7.772,7.772,0,0,1-2.289.337m-7.988-1.937a3.35,3.35,0,0,0,1.326-.31,4.01,4.01,0,0,0,1.189-.763v-2.2h-2.063a2.8,2.8,0,0,0-1.726.521,1.521,1.521,0,0,0-.631,1.237,1.371,1.371,0,0,0,.489,1.1,2.128,2.128,0,0,0,1.416.416m7.609-7.819a2.22,2.22,0,0,0-1.71.726,3.637,3.637,0,0,0-.837,2.063H714.9v-.316a2.659,2.659,0,0,0-.573-1.831,2.081,2.081,0,0,0-1.637-.642" transform="translate(-365.741 -30.515)" fill="#fff" fill-rule="evenodd"/><path d="M848.547,469.412v2.768h2.01v1.895h-2.01v6.357a1.4,1.4,0,0,0,.258.942,1.2,1.2,0,0,0,.921.289,3.948,3.948,0,0,0,.895-.105v1.978a6.3,6.3,0,0,1-1.684.242q-2.947,0-2.947-3.252v-6.452h-1.873V472.18h1.873v-2.768Z" transform="translate(-491.844 -11.965)" fill="#fff" fill-rule="evenodd"/><path d="M909.385,502.33a5.291,5.291,0,0,1-3.941-1.531,5.554,5.554,0,0,1-1.51-4.078v-.316a6.831,6.831,0,0,1,.658-3.047,5,5,0,0,1,1.847-2.089,4.883,4.883,0,0,1,2.652-.747,4.47,4.47,0,0,1,3.594,1.484,6.275,6.275,0,0,1,1.268,4.2v1.031h-7.441a3.421,3.421,0,0,0,.942,2.231,2.828,2.828,0,0,0,2.079.821,3.464,3.464,0,0,0,2.863-1.421l1.379,1.316a4.605,4.605,0,0,1-1.826,1.584,5.718,5.718,0,0,1-2.563.563m-.3-9.756a2.154,2.154,0,0,0-1.7.737,3.818,3.818,0,0,0-.826,2.052h4.873v-.19a3.109,3.109,0,0,0-.684-1.942,2.138,2.138,0,0,0-1.663-.658" transform="translate(-544.414 -30.517)" fill="#fff" fill-rule="evenodd"/><path d="M1006.846,493.069a6.329,6.329,0,0,0-1.042-.084,2.346,2.346,0,0,0-2.368,1.347v7.788h-2.557V490.732h2.442l.063,1.274a2.881,2.881,0,0,1,2.568-1.484,2.4,2.4,0,0,1,.9.147Z" transform="translate(-629.614 -30.517)" fill="#fff" fill-rule="evenodd"/><path d="M1063.525,490.732l.074,1.316a4.094,4.094,0,0,1,3.315-1.526q3.557,0,3.62,4.073v7.525h-2.557v-7.377a2.345,2.345,0,0,0-.469-1.605,1.97,1.97,0,0,0-1.531-.521,2.464,2.464,0,0,0-2.3,1.4v8.1h-2.557V490.732Z" transform="translate(-682.552 -30.517)" fill="#fff" fill-rule="evenodd"/><path d="M1153.531,457.925a1.358,1.358,0,0,1,.373-.979,1.412,1.412,0,0,1,1.068-.39,1.429,1.429,0,0,1,1.073.39,1.347,1.347,0,0,1,.379.979,1.315,1.315,0,0,1-.379.963,1.44,1.44,0,0,1-1.073.384,1.422,1.422,0,0,1-1.068-.384A1.326,1.326,0,0,1,1153.531,457.925Zm.158,14.345h2.557V460.883h-2.557Z" transform="translate(-763.771 -0.667)" fill="#fff" fill-rule="evenodd"/><path d="M1194.533,469.412v2.768h2.01v1.895h-2.01v6.357a1.4,1.4,0,0,0,.258.942,1.194,1.194,0,0,0,.921.289,3.95,3.95,0,0,0,.895-.105v1.978a6.3,6.3,0,0,1-1.684.242q-2.947,0-2.947-3.252v-6.452H1190.1V472.18h1.873v-2.768Z" transform="translate(-795.911 -11.965)" fill="#fff" fill-rule="evenodd"/><path d="M1256.446,499.982l2.316-7.725h2.726l-4.526,13.114q-1.042,2.873-3.536,2.873a4.557,4.557,0,0,1-1.231-.19v-1.988l.484.032a2.493,2.493,0,0,0,1.458-.352,2.339,2.339,0,0,0,.774-1.183l.368-.978-4-11.326h2.757Z" transform="translate(-849.675 -32.042)" fill="#fff" fill-rule="evenodd"/></g></svg>